<?xml version="1.0" standalone="no"?>
<!DOCTYPE svg PUBLIC "-//W3C//DTD SVG 20010904//EN"
 "http://www.w3.org/TR/2001/REC-SVG-20010904/DTD/svg10.dtd">
<svg version="1.0" xmlns="http://www.w3.org/2000/svg"
 width="16.000000pt" height="16.000000pt" viewBox="0 0 16.000000 16.000000"
 preserveAspectRatio="xMidYMid meet">
<metadata>
Created by potrace 1.11, written by Peter Selinger 2001-2013
</metadata>
<g transform="translate(0.000000,16.000000) scale(0.002222,-0.002222)"
fill="#000000" stroke="none">
<path d="M900 3600 l0 -2700 2700 0 2700 0 0 2700 0 2700 -2700 0 -2700 0 0
-2700z m5200 0 l0 -2500 -2500 0 -2500 0 0 2500 0 2500 2500 0 2500 0 0 -2500z"/>
<path d="M1963 3685 l0 -1286 471 2 c556 1 627 9 808 85 258 108 403 326 412
618 4 158 -24 283 -85 378 -73 113 -202 195 -382 243 -51 14 -93 25 -94 25 -2
0 -10 0 -20 0 -25 0 -10 10 23 16 87 14 186 55 289 119 81 50 172 194 195 309
12 60 15 200 5 246 -3 14 -8 41 -11 60 -11 63 -80 193 -130 243 -92 95 -224
161 -379 191 -44 8 -96 18 -115 22 -19 4 -249 9 -511 11 l-476 4 0 -1286z
m932 1111 c17 -4 55 -11 85 -17 292 -56 426 -214 415 -489 -8 -199 -93 -324
-265 -393 -139 -55 -201 -61 -610 -62 l-375 0 -1 475 c0 261 2 481 4 489 4 11
67 12 361 8 196 -3 370 -8 386 -11z m41 -1143 c346 -51 516 -215 523 -503 2
-78 -18 -203 -41 -256 -69 -160 -199 -260 -393 -303 -27 -6 -61 -14 -75 -18
-14 -3 -201 -8 -415 -10 l-390 -5 1 554 c1 304 2 554 3 556 0 2 155 2 344 1
241 -1 373 -6 443 -16z"/>
<path d="M3952 3685 l0 -1285 91 0 92 0 0 568 0 567 580 5 580 5 0 80 0 80
-580 5 -580 5 0 540 0 540 614 5 614 5 0 73 c-1 39 -2 77 -2 82 -1 7 -243 10
-705 10 l-704 0 0 -1285z"/>
</g>
</svg>
